<svg width="153" height="204" viewBox="0 0 153 204" fill="none" xmlns="http://www.w3.org/2000/svg">
<path id="Pattern" opacity="0.2" fill-rule="evenodd" clip-rule="evenodd" d="M153 5.42151C153 8.27091 150.985 10.5808 148.5 10.5808C146.015 10.5808 144 8.27091 144 5.42151C144 2.57211 146.015 0.262207 148.5 0.262207C150.985 0.262207 153 2.57211 153 5.42151ZM148.5 38.0971C150.985 38.0971 153 35.7872 153 32.9378C153 30.0884 150.985 27.7785 148.5 27.7785C146.015 27.7785 144 30.0884 144 32.9378C144 35.7872 146.015 38.0971 148.5 38.0971ZM153 60.4541C153 63.3035 150.985 65.6134 148.5 65.6134C146.015 65.6134 144 63.3035 144 60.4541C144 57.6047 146.015 55.2948 148.5 55.2948C150.985 55.2948 153 57.6047 153 60.4541ZM148.5 93.1297C150.985 93.1297 153 90.8198 153 87.9704C153 85.1209 150.985 82.8111 148.5 82.8111C146.015 82.8111 144 85.1209 144 87.9704C144 90.8198 146.015 93.1297 148.5 93.1297ZM153 115.487C153 118.336 150.985 120.646 148.5 120.646C146.015 120.646 144 118.336 144 115.487C144 112.637 146.015 110.327 148.5 110.327C150.985 110.327 153 112.637 153 115.487ZM148.5 148.162C150.985 148.162 153 145.852 153 143.003C153 140.154 150.985 137.844 148.5 137.844C146.015 137.844 144 140.154 144 143.003C144 145.852 146.015 148.162 148.5 148.162ZM153 170.519C153 173.369 150.985 175.678 148.5 175.678C146.015 175.678 144 173.369 144 170.519C144 167.67 146.015 165.36 148.5 165.36C150.985 165.36 153 167.67 153 170.519ZM4.49982 203.195C6.9851 203.195 8.99982 200.885 8.99982 198.035C8.99982 195.186 6.9851 192.876 4.49982 192.876C2.01454 192.876 -0.000183105 195.186 -0.000183105 198.035C-0.000183105 200.885 2.01454 203.195 4.49982 203.195ZM32.9998 198.035C32.9998 200.885 30.9851 203.195 28.4998 203.195C26.0145 203.195 23.9998 200.885 23.9998 198.035C23.9998 195.186 26.0145 192.876 28.4998 192.876C30.9851 192.876 32.9998 195.186 32.9998 198.035ZM52.4998 203.195C54.9851 203.195 56.9998 200.885 56.9998 198.035C56.9998 195.186 54.9851 192.876 52.4998 192.876C50.0145 192.876 47.9998 195.186 47.9998 198.035C47.9998 200.885 50.0145 203.195 52.4998 203.195ZM80.9998 198.035C80.9998 200.885 78.9851 203.195 76.4998 203.195C74.0145 203.195 71.9998 200.885 71.9998 198.035C71.9998 195.186 74.0145 192.876 76.4998 192.876C78.9851 192.876 80.9998 195.186 80.9998 198.035ZM100.5 203.195C102.985 203.195 105 200.885 105 198.035C105 195.186 102.985 192.876 100.5 192.876C98.0145 192.876 95.9998 195.186 95.9998 198.035C95.9998 200.885 98.0145 203.195 100.5 203.195ZM129 198.035C129 200.885 126.985 203.195 124.5 203.195C122.015 203.195 120 200.885 120 198.035C120 195.186 122.015 192.876 124.5 192.876C126.985 192.876 129 195.186 129 198.035ZM153 198.035C153 200.885 150.985 203.195 148.5 203.195C146.015 203.195 144 200.885 144 198.035C144 195.186 146.015 192.876 148.5 192.876C150.985 192.876 153 195.186 153 198.035ZM124.5 175.678C126.985 175.678 129 173.369 129 170.519C129 167.67 126.985 165.36 124.5 165.36C122.015 165.36 120 167.67 120 170.519C120 173.369 122.015 175.678 124.5 175.678ZM105 170.519C105 173.369 102.985 175.678 100.5 175.678C98.0145 175.678 95.9998 173.369 95.9998 170.519C95.9998 167.67 98.0145 165.36 100.5 165.36C102.985 165.36 105 167.67 105 170.519ZM76.4998 175.678C78.9851 175.678 80.9998 173.369 80.9998 170.519C80.9998 167.67 78.9851 165.36 76.4998 165.36C74.0145 165.36 71.9998 167.67 71.9998 170.519C71.9998 173.369 74.0145 175.678 76.4998 175.678ZM56.9998 170.519C56.9998 173.369 54.9851 175.678 52.4998 175.678C50.0145 175.678 47.9998 173.369 47.9998 170.519C47.9998 167.67 50.0145 165.36 52.4998 165.36C54.9851 165.36 56.9998 167.67 56.9998 170.519ZM28.4998 175.678C30.9851 175.678 32.9998 173.369 32.9998 170.519C32.9998 167.67 30.9851 165.36 28.4998 165.36C26.0145 165.36 23.9998 167.67 23.9998 170.519C23.9998 173.369 26.0145 175.678 28.4998 175.678ZM8.99982 170.519C8.99982 173.369 6.9851 175.678 4.49982 175.678C2.01454 175.678 -0.000183105 173.369 -0.000183105 170.519C-0.000183105 167.67 2.01454 165.36 4.49982 165.36C6.9851 165.36 8.99982 167.67 8.99982 170.519ZM129 143.003C129 145.852 126.985 148.162 124.5 148.162C122.015 148.162 120 145.852 120 143.003C120 140.154 122.015 137.844 124.5 137.844C126.985 137.844 129 140.154 129 143.003ZM100.5 148.162C102.985 148.162 105 145.852 105 143.003C105 140.154 102.985 137.844 100.5 137.844C98.0145 137.844 95.9998 140.154 95.9998 143.003C95.9998 145.852 98.0145 148.162 100.5 148.162ZM80.9998 143.003C80.9998 145.852 78.9851 148.162 76.4998 148.162C74.0145 148.162 71.9998 145.852 71.9998 143.003C71.9998 140.154 74.0145 137.844 76.4998 137.844C78.9851 137.844 80.9998 140.154 80.9998 143.003ZM52.4998 148.162C54.9851 148.162 56.9998 145.852 56.9998 143.003C56.9998 140.154 54.9851 137.844 52.4998 137.844C50.0145 137.844 47.9998 140.154 47.9998 143.003C47.9998 145.852 50.0145 148.162 52.4998 148.162ZM32.9998 143.003C32.9998 145.852 30.9851 148.162 28.4998 148.162C26.0145 148.162 23.9998 145.852 23.9998 143.003C23.9998 140.154 26.0145 137.844 28.4998 137.844C30.9851 137.844 32.9998 140.154 32.9998 143.003ZM4.49982 148.162C6.9851 148.162 8.99982 145.852 8.99982 143.003C8.99982 140.154 6.9851 137.844 4.49982 137.844C2.01454 137.844 -0.000183105 140.154 -0.000183105 143.003C-0.000183105 145.852 2.01454 148.162 4.49982 148.162ZM124.5 120.646C126.985 120.646 129 118.336 129 115.487C129 112.637 126.985 110.327 124.5 110.327C122.015 110.327 120 112.637 120 115.487C120 118.336 122.015 120.646 124.5 120.646ZM105 115.487C105 118.336 102.985 120.646 100.5 120.646C98.0145 120.646 95.9998 118.336 95.9998 115.487C95.9998 112.637 98.0145 110.327 100.5 110.327C102.985 110.327 105 112.637 105 115.487ZM76.4998 120.646C78.9851 120.646 80.9998 118.336 80.9998 115.487C80.9998 112.637 78.9851 110.327 76.4998 110.327C74.0145 110.327 71.9998 112.637 71.9998 115.487C71.9998 118.336 74.0145 120.646 76.4998 120.646ZM56.9998 115.487C56.9998 118.336 54.9851 120.646 52.4998 120.646C50.0145 120.646 47.9998 118.336 47.9998 115.487C47.9998 112.637 50.0145 110.327 52.4998 110.327C54.9851 110.327 56.9998 112.637 56.9998 115.487ZM28.4998 120.646C30.9851 120.646 32.9998 118.336 32.9998 115.487C32.9998 112.637 30.9851 110.327 28.4998 110.327C26.0145 110.327 23.9998 112.637 23.9998 115.487C23.9998 118.336 26.0145 120.646 28.4998 120.646ZM8.99982 115.487C8.99982 118.336 6.9851 120.646 4.49982 120.646C2.01454 120.646 -0.000183105 118.336 -0.000183105 115.487C-0.000183105 112.637 2.01454 110.327 4.49982 110.327C6.9851 110.327 8.99982 112.637 8.99982 115.487ZM129 87.9704C129 90.8198 126.985 93.1297 124.5 93.1297C122.015 93.1297 120 90.8198 120 87.9704C120 85.1209 122.015 82.8111 124.5 82.8111C126.985 82.8111 129 85.1209 129 87.9704ZM100.5 93.1297C102.985 93.1297 105 90.8198 105 87.9704C105 85.1209 102.985 82.8111 100.5 82.8111C98.0145 82.8111 95.9998 85.1209 95.9998 87.9704C95.9998 90.8198 98.0145 93.1297 100.5 93.1297ZM80.9998 87.9704C80.9998 90.8198 78.9851 93.1297 76.4998 93.1297C74.0145 93.1297 71.9998 90.8198 71.9998 87.9704C71.9998 85.1209 74.0145 82.8111 76.4998 82.8111C78.9851 82.8111 80.9998 85.1209 80.9998 87.9704ZM52.4998 93.1297C54.9851 93.1297 56.9998 90.8198 56.9998 87.9704C56.9998 85.1209 54.9851 82.8111 52.4998 82.8111C50.0145 82.8111 47.9998 85.1209 47.9998 87.9704C47.9998 90.8198 50.0145 93.1297 52.4998 93.1297ZM32.9998 87.9704C32.9998 90.8198 30.9851 93.1297 28.4998 93.1297C26.0145 93.1297 23.9998 90.8198 23.9998 87.9704C23.9998 85.1209 26.0145 82.8111 28.4998 82.8111C30.9851 82.8111 32.9998 85.1209 32.9998 87.9704ZM4.49982 93.1297C6.9851 93.1297 8.99982 90.8198 8.99982 87.9704C8.99982 85.1209 6.9851 82.8111 4.49982 82.8111C2.01454 82.8111 -0.000183105 85.1209 -0.000183105 87.9704C-0.000183105 90.8198 2.01454 93.1297 4.49982 93.1297ZM124.5 65.6134C126.985 65.6134 129 63.3035 129 60.4541C129 57.6047 126.985 55.2948 124.5 55.2948C122.015 55.2948 120 57.6047 120 60.4541C120 63.3035 122.015 65.6134 124.5 65.6134ZM105 60.4541C105 63.3035 102.985 65.6134 100.5 65.6134C98.0145 65.6134 95.9998 63.3035 95.9998 60.4541C95.9998 57.6047 98.0145 55.2948 100.5 55.2948C102.985 55.2948 105 57.6047 105 60.4541ZM76.4998 65.6134C78.9851 65.6134 80.9998 63.3035 80.9998 60.4541C80.9998 57.6047 78.9851 55.2948 76.4998 55.2948C74.0145 55.2948 71.9998 57.6047 71.9998 60.4541C71.9998 63.3035 74.0145 65.6134 76.4998 65.6134ZM56.9998 60.4541C56.9998 63.3035 54.9851 65.6134 52.4998 65.6134C50.0145 65.6134 47.9998 63.3035 47.9998 60.4541C47.9998 57.6047 50.0145 55.2948 52.4998 55.2948C54.9851 55.2948 56.9998 57.6047 56.9998 60.4541ZM28.4998 65.6134C30.9851 65.6134 32.9998 63.3035 32.9998 60.4541C32.9998 57.6047 30.9851 55.2948 28.4998 55.2948C26.0145 55.2948 23.9998 57.6047 23.9998 60.4541C23.9998 63.3035 26.0145 65.6134 28.4998 65.6134ZM8.99982 60.4541C8.99982 63.3035 6.9851 65.6134 4.49982 65.6134C2.01454 65.6134 -0.000183105 63.3035 -0.000183105 60.4541C-0.000183105 57.6047 2.01454 55.2948 4.49982 55.2948C6.9851 55.2948 8.99982 57.6047 8.99982 60.4541ZM129 32.9378C129 35.7872 126.985 38.0971 124.5 38.0971C122.015 38.0971 120 35.7872 120 32.9378C120 30.0884 122.015 27.7785 124.5 27.7785C126.985 27.7785 129 30.0884 129 32.9378ZM100.5 38.0971C102.985 38.0971 105 35.7872 105 32.9378C105 30.0884 102.985 27.7785 100.5 27.7785C98.0145 27.7785 95.9998 30.0884 95.9998 32.9378C95.9998 35.7872 98.0145 38.0971 100.5 38.0971ZM80.9998 32.9378C80.9998 35.7872 78.9851 38.0971 76.4998 38.0971C74.0145 38.0971 71.9998 35.7872 71.9998 32.9378C71.9998 30.0884 74.0145 27.7785 76.4998 27.7785C78.9851 27.7785 80.9998 30.0884 80.9998 32.9378ZM52.4998 38.0971C54.9851 38.0971 56.9998 35.7872 56.9998 32.9378C56.9998 30.0884 54.9851 27.7785 52.4998 27.7785C50.0145 27.7785 47.9998 30.0884 47.9998 32.9378C47.9998 35.7872 50.0145 38.0971 52.4998 38.0971ZM32.9998 32.9378C32.9998 35.7872 30.9851 38.0971 28.4998 38.0971C26.0145 38.0971 23.9998 35.7872 23.9998 32.9378C23.9998 30.0884 26.0145 27.7785 28.4998 27.7785C30.9851 27.7785 32.9998 30.0884 32.9998 32.9378ZM4.49982 38.0971C6.9851 38.0971 8.99982 35.7872 8.99982 32.9378C8.99982 30.0884 6.9851 27.7785 4.49982 27.7785C2.01454 27.7785 -0.000183105 30.0884 -0.000183105 32.9378C-0.000183105 35.7872 2.01454 38.0971 4.49982 38.0971ZM124.5 10.5808C126.985 10.5808 129 8.27091 129 5.42151C129 2.57211 126.985 0.262207 124.5 0.262207C122.015 0.262207 120 2.57211 120 5.42151C120 8.27091 122.015 10.5808 124.5 10.5808ZM105 5.42151C105 8.27091 102.985 10.5808 100.5 10.5808C98.0145 10.5808 95.9998 8.27091 95.9998 5.42151C95.9998 2.57211 98.0145 0.262207 100.5 0.262207C102.985 0.262207 105 2.57211 105 5.42151ZM76.4998 10.5808C78.9851 10.5808 80.9998 8.27091 80.9998 5.42151C80.9998 2.57211 78.9851 0.262207 76.4998 0.262207C74.0145 0.262207 71.9998 2.57211 71.9998 5.42151C71.9998 8.27091 74.0145 10.5808 76.4998 10.5808ZM56.9998 5.42151C56.9998 8.27091 54.9851 10.5808 52.4998 10.5808C50.0145 10.5808 47.9998 8.27091 47.9998 5.42151C47.9998 2.57211 50.0145 0.262207 52.4998 0.262207C54.9851 0.262207 56.9998 2.57211 56.9998 5.42151ZM28.4998 10.5808C30.9851 10.5808 32.9998 8.27091 32.9998 5.42151C32.9998 2.57211 30.9851 0.262207 28.4998 0.262207C26.0145 0.262207 23.9998 2.57211 23.9998 5.42151C23.9998 8.27091 26.0145 10.5808 28.4998 10.5808ZM8.99982 5.42151C8.99982 8.27091 6.9851 10.5808 4.49982 10.5808C2.01454 10.5808 -0.000183105 8.27091 -0.000183105 5.42151C-0.000183105 2.57211 2.01454 0.262207 4.49982 0.262207C6.9851 0.262207 8.99982 2.57211 8.99982 5.42151Z" fill="#293FCC"/>
</svg>
